<svg preserveAspectRatio="none" width="100%" height="100%" overflow="visible" style="display: block;" viewBox="0 0 41 41" fill="none" xmlns="http://www.w3.org/2000/svg">
<g id="Group 1721908789">
<circle id="Ellipse 1324" cx="20.5" cy="20.5" r="20.5" transform="matrix(-1 0 0 1 41 0)" fill="var(--fill-0, #00B5E2)"/>
<path id="Vector" d="M20.4994 27.9121C19.379 27.9121 18.2689 27.867 17.1692 27.7769C16.0687 27.686 14.9681 27.5579 13.8676 27.3926C13.3822 27.3142 12.9736 27.0995 12.6418 26.7485C12.3099 26.399 12.144 25.9833 12.144 25.5014V24.8279C11.2074 24.5991 10.4491 24.116 9.86896 23.3787C9.28965 22.6421 9 21.8029 9 20.861C9 19.9387 9.28965 19.1093 9.86896 18.3727C10.4491 17.6354 11.2074 17.1441 12.144 16.8988V15.8174C12.144 15.2815 12.3489 14.8235 12.7587 14.4434C13.1677 14.0642 13.6468 13.8894 14.1959 13.9192C14.6351 13.949 15.0744 13.9991 15.5136 14.0697C15.9529 14.1402 16.3945 14.1872 16.8385 14.2107C17.4401 14.2593 18.0449 14.2922 18.6529 14.3094C19.2624 14.3267 19.8779 14.3353 20.4994 14.3353C21.0246 14.3353 21.5498 14.3294 22.075 14.3177C22.5994 14.3051 23.1262 14.2773 23.6554 14.2342C24.1869 14.195 24.7053 14.1441 25.2106 14.0814C25.7167 14.0187 26.2352 13.9647 26.7659 13.9192C27.315 13.8745 27.8004 14.0407 28.2222 14.4176C28.6439 14.7945 28.8548 15.2619 28.8548 15.8198V16.9C29.7866 17.1437 30.5438 17.6342 31.1263 18.3715C31.7088 19.1081 32 19.9375 32 20.8598C32 21.8017 31.7088 22.6401 31.1263 23.3751C30.5438 24.1094 29.7866 24.5913 28.8548 24.8209V25.4932C28.8548 25.9759 28.6837 26.3923 28.3415 26.7426C27.9994 27.0929 27.5856 27.3095 27.1002 27.3926C26.0004 27.5626 24.9043 27.6919 23.8117 27.7805C22.7192 27.869 21.615 27.9129 20.4994 27.9121ZM20.4994 26.7367C21.5864 26.7367 22.6654 26.6917 23.7365 26.6016C24.8076 26.5107 25.8862 26.3825 26.9724 26.2172C27.1714 26.1866 27.3345 26.1048 27.4618 25.9715C27.5899 25.8383 27.6564 25.6789 27.6612 25.4932V15.774C27.6612 15.5624 27.5808 15.3818 27.4201 15.2321C27.2593 15.0809 27.0719 15.0205 26.8579 15.0511C25.8019 15.2125 24.742 15.3297 23.678 15.4025C22.6141 15.4754 21.5546 15.5118 20.4994 15.5118C19.4235 15.5118 18.3537 15.4754 17.2897 15.4025C16.2258 15.3297 15.1687 15.2121 14.1183 15.0499C13.8994 15.0201 13.7144 15.0817 13.5632 15.2345C13.4128 15.388 13.3376 15.5679 13.3376 15.774V25.4943C13.3376 25.6746 13.3989 25.8325 13.5215 25.968C13.644 26.1036 13.8047 26.1866 14.0037 26.2172C15.0899 26.3825 16.1673 26.5103 17.236 26.6004C18.3047 26.6905 19.3925 26.7359 20.4994 26.7367ZM20.4994 24.386C21.3397 24.386 22.1673 24.3409 22.9821 24.2508C23.797 24.1599 24.6146 23.9993 25.4351 23.7689C25.5894 23.7164 25.708 23.6243 25.7908 23.4927C25.8735 23.361 25.8878 23.2141 25.8337 23.0519C25.7804 22.9046 25.6833 22.789 25.5425 22.7052C25.4016 22.6213 25.256 22.6057 25.1056 22.6582C24.3552 22.8697 23.5925 23.0147 22.8174 23.093C22.0432 23.1714 21.2705 23.2106 20.4994 23.2106C19.7132 23.2106 18.9354 23.1687 18.1659 23.0848C17.3972 23.001 16.6372 22.8513 15.886 22.6358C15.7205 22.5833 15.5713 22.6017 15.4384 22.6911C15.3047 22.7796 15.2112 22.8979 15.1579 23.046C15.1046 23.2082 15.1205 23.3552 15.2057 23.4868C15.29 23.6177 15.4149 23.7093 15.5805 23.7618C16.3699 24.0016 17.1759 24.1658 17.9988 24.2543C18.8216 24.3429 19.6551 24.3867 20.4994 24.386ZM12.144 23.5879V18.1388C11.552 18.3535 11.0785 18.7089 10.7236 19.2049C10.3703 19.7009 10.1936 20.2525 10.1936 20.8598C10.1936 21.4867 10.3703 22.0442 10.7236 22.5324C11.0785 23.0206 11.552 23.3724 12.144 23.5879ZM28.8548 23.5879C29.4277 23.3724 29.896 23.0206 30.2597 22.5324C30.6233 22.0442 30.8056 21.4867 30.8064 20.8598C30.8064 20.2525 30.6241 19.7009 30.2597 19.2049C29.8952 18.7089 29.4269 18.3531 28.8548 18.1376V23.5879ZM20.4994 19.6844C21.3397 19.6844 22.1673 19.6394 22.9821 19.5493C23.797 19.4584 24.6146 19.2977 25.4351 19.0674C25.5894 19.0149 25.708 18.9228 25.7908 18.7912C25.8735 18.6595 25.8878 18.5126 25.8337 18.3504C25.7804 18.2031 25.6833 18.0875 25.5425 18.0037C25.4016 17.9198 25.256 17.9041 25.1056 17.9566C24.3552 18.1682 23.5925 18.3132 22.8174 18.3915C22.0432 18.4699 21.2705 18.5091 20.4994 18.5091C19.7132 18.5091 18.9354 18.466 18.1659 18.3798C17.3972 18.2936 16.6372 18.1451 15.886 17.9343C15.7205 17.8975 15.5713 17.9194 15.4384 18.0001C15.3047 18.0816 15.2112 18.1984 15.1579 18.3504C15.1046 18.5134 15.1153 18.6603 15.1901 18.7912C15.265 18.9228 15.3875 19.0149 15.5578 19.0674C16.3623 19.2977 17.1759 19.4584 17.9988 19.5493C18.8216 19.6402 19.6551 19.6852 20.4994 19.6844Z" fill="var(--fill-0, white)"/>
</g>
</svg>
