<svg preserveAspectRatio="none" width="100%" height="100%" overflow="visible" style="display: block;" viewBox="0 0 41 41" fill="none" xmlns="http://www.w3.org/2000/svg">
<g id="Group 1721908791">
<circle id="Ellipse 1324" cx="20.5" cy="20.5" r="20.5" transform="matrix(-1 0 0 1 41 0)" fill="var(--fill-0, #00B5E2)"/>
<path id="Vector" d="M20.1779 29.8533C20.3149 29.8533 20.4555 29.8222 20.5995 29.7602C20.7436 29.6981 20.86 29.6223 20.9488 29.5328L29.1266 21.2852C29.3902 21.0193 29.5937 20.7478 29.737 20.4707C29.8797 20.1921 29.951 19.8868 29.951 19.5546C29.951 19.2183 29.8797 18.8918 29.737 18.5751C29.5937 18.2578 29.3902 17.9687 29.1266 17.7077L25.1929 13.741C24.9335 13.4752 24.6667 13.2802 24.3926 13.1561C24.1192 13.032 23.8157 12.9699 23.4821 12.9699C23.1527 12.9699 22.8468 13.032 22.5642 13.1561C22.2817 13.2802 22.0156 13.4748 21.766 13.74L20.8513 14.6624L22.7919 16.6246C23.0003 16.8312 23.1559 17.066 23.2587 17.329C23.3608 17.5921 23.4118 17.859 23.4118 18.1298C23.4118 18.6805 23.2331 19.1361 22.8758 19.4965C22.5184 19.8568 22.067 20.0366 21.5216 20.0359C21.2523 20.0359 20.9898 19.9947 20.7338 19.9122C20.4779 19.8297 20.2474 19.6851 20.0425 19.4785L18.0359 17.4623L13.5065 22.0288C13.4009 22.136 13.3215 22.2576 13.2683 22.3937C13.2152 22.5298 13.1886 22.6674 13.1886 22.8063C13.1886 23.0559 13.268 23.2615 13.4267 23.423C13.5848 23.5852 13.7876 23.6663 14.0351 23.6663C14.1722 23.6663 14.3128 23.6352 14.4568 23.5732C14.6009 23.5104 14.7173 23.4342 14.8061 23.3447L18.1303 19.9926L18.8729 20.7415L15.554 24.0947C15.4477 24.2011 15.368 24.3224 15.3149 24.4585C15.2624 24.5953 15.2362 24.7329 15.2362 24.8711C15.2362 25.1073 15.3187 25.3087 15.4838 25.4751C15.6488 25.6415 15.8484 25.7251 16.0827 25.7258C16.2198 25.7258 16.3603 25.6944 16.5044 25.6316C16.6485 25.5689 16.7649 25.4931 16.8537 25.4042L20.4202 21.8141L21.1628 22.5619L17.6016 26.1584C17.5086 26.248 17.4324 26.3654 17.3729 26.5106C17.3128 26.6559 17.2827 26.7977 17.2827 26.9359C17.2827 27.1714 17.3656 27.3724 17.5313 27.5388C17.6964 27.7067 17.896 27.7906 18.1303 27.7906C18.2673 27.7906 18.4037 27.7638 18.5394 27.7102C18.675 27.6566 18.7953 27.5762 18.9002 27.469L22.4667 23.8778L23.2094 24.6267L19.6429 28.2232C19.5373 28.3304 19.4579 28.4591 19.4048 28.6093C19.3516 28.7595 19.3251 28.8967 19.3251 29.0208C19.3251 29.2704 19.4121 29.4718 19.5862 29.6248C19.7604 29.7778 19.9576 29.8543 20.1779 29.8543M20.1716 30.9121C19.6324 30.9121 19.1709 30.7132 18.7869 30.3155C18.403 29.9171 18.2345 29.4256 18.2813 28.841C17.6869 28.848 17.1922 28.6692 16.7971 28.3047C16.4019 27.9394 16.2142 27.4302 16.2338 26.7772C15.5862 26.7843 15.0757 26.5974 14.7023 26.2166C14.3288 25.8358 14.1589 25.3344 14.1925 24.7124C13.6093 24.7195 13.1211 24.5537 12.7281 24.2152C12.3358 23.8782 12.1397 23.4085 12.1397 22.8063C12.1397 22.5348 12.1918 22.2633 12.296 21.9918C12.4002 21.7196 12.554 21.4805 12.7575 21.2746L18.0359 15.9582L20.7443 18.6894C20.8331 18.7832 20.9429 18.8604 21.0737 18.921C21.2044 18.9817 21.3516 19.0116 21.5153 19.0109C21.7398 19.0109 21.938 18.9319 22.11 18.774C22.2821 18.616 22.3684 18.4101 22.3691 18.1562C22.3691 17.9912 22.3391 17.8431 22.2789 17.712C22.2188 17.5801 22.1426 17.4694 22.0503 17.3798L18.4418 13.741C18.1817 13.4752 17.9114 13.2802 17.631 13.1561C17.3506 13.032 17.0436 12.9699 16.71 12.9699C16.3806 12.9699 16.0813 13.032 15.8121 13.1561C15.5435 13.2802 15.2775 13.4752 15.0138 13.741L11.8208 16.9673C11.5956 17.1929 11.4138 17.4627 11.2753 17.7765C11.1369 18.0896 11.0634 18.4129 11.055 18.7465C11.048 18.9855 11.0683 19.2151 11.1159 19.4351C11.1634 19.6551 11.2404 19.8624 11.3466 20.0571L10.5515 20.8589C10.3753 20.5754 10.2375 20.2489 10.1382 19.8794C10.0389 19.5099 9.99314 19.1326 10.0008 18.7475C10.0092 18.2666 10.1047 17.8065 10.2872 17.3671C10.4697 16.9278 10.7313 16.5361 11.0718 16.1919L14.2449 12.9921C14.6107 12.6268 14.9977 12.3553 15.4061 12.1776C15.8145 12.0006 16.2561 11.9121 16.731 11.9121C17.2058 11.9121 17.6436 12.001 18.0443 12.1787C18.4457 12.3557 18.8275 12.6268 19.1897 12.9921L20.1023 13.9134L21.017 12.9921C21.3828 12.6268 21.7663 12.3553 22.1677 12.1776C22.5691 12.0006 23.0073 11.9121 23.4821 11.9121C23.9569 11.9121 24.3985 12.001 24.8069 12.1787C25.2146 12.3557 25.5992 12.6268 25.9608 12.9921L29.8692 16.9324C30.2308 17.297 30.5098 17.7063 30.7063 18.1605C30.9028 18.6146 31.0007 19.0811 31 19.5599C31 20.0395 30.9021 20.4813 30.7063 20.8853C30.5105 21.2894 30.2315 21.6744 29.8692 22.0404L21.6905 30.2806C21.473 30.5006 21.2359 30.6607 20.9793 30.7608C20.7233 30.861 20.4541 30.911 20.1716 30.911" fill="var(--fill-0, white)"/>
</g>
</svg>
