<svg preserveAspectRatio="none" width="100%" height="100%" overflow="visible" style="display: block;" viewBox="0 0 41 41" fill="none" xmlns="http://www.w3.org/2000/svg">
<g id="Group 1721908792">
<circle id="Ellipse 1324" cx="20.5" cy="20.5" r="20.5" transform="matrix(-1 0 0 1 41 0)" fill="var(--fill-0, #00B5E2)"/>
<path id="Vector" d="M12.5353 27.912C12.1097 27.912 11.7475 27.7648 11.4485 27.4704C11.1496 27.1759 11.0001 26.8194 11.0001 26.4008V22.8729C11.0001 22.455 11.1496 22.0984 11.4485 21.8034C11.7475 21.5089 12.1097 21.3617 12.5353 21.3617H12.9001V16.9832H12.7177C12.4935 16.9439 12.3096 16.8416 12.1658 16.6763C12.022 16.5122 11.9501 16.3104 11.9501 16.0709V14.8834C11.9501 14.6089 12.0448 14.3781 12.2342 14.1909C12.4236 14.0038 12.6579 13.9108 12.9372 13.912H17.614C17.8927 13.912 18.1267 14.0053 18.3161 14.1918C18.5055 14.3784 18.6001 14.6089 18.6001 14.8834V16.0718C18.6001 16.3101 18.5283 16.5116 18.3845 16.6763C18.2407 16.8416 18.0571 16.9439 17.8335 16.9832H17.6501V21.3617H23.3501V16.9832H23.1677C22.9435 16.9439 22.7596 16.8416 22.6158 16.6763C22.472 16.5122 22.4001 16.3104 22.4001 16.0709V14.8834C22.4001 14.6089 22.4948 14.3781 22.6842 14.1909C22.8736 14.0038 23.1079 13.9108 23.3872 13.912H28.0631C28.3424 13.912 28.5767 14.0053 28.7661 14.1918C28.9555 14.3784 29.0501 14.6089 29.0501 14.8834V16.0718C29.0501 16.3101 28.9783 16.5116 28.8345 16.6763C28.6907 16.8416 28.5071 16.9439 28.2835 16.9832H28.1001V21.3617H28.4659C28.8902 21.3617 29.2522 21.5089 29.5517 21.8034C29.8507 22.0978 30.0001 22.4546 30.0001 22.8739V26.4008C30.0001 26.8187 29.8507 27.1753 29.5517 27.4704C29.2528 27.7648 28.8909 27.912 28.4659 27.912H12.5353ZM23.3501 16.1074H28.1001V14.8469H23.3501V16.1074ZM12.9001 16.1074H17.6501V14.8469H12.9001V16.1074ZM24.3001 21.3617H27.1501V17.0431H24.3001V21.3617ZM13.8501 21.3617H16.7001V17.0431H13.8501V21.3617ZM12.5353 26.9763H28.4659C28.6363 26.9763 28.7762 26.9223 28.8858 26.8144C28.9954 26.7065 29.0501 26.5686 29.0501 26.4008V22.8729C29.0501 22.7051 28.9954 22.5673 28.8858 22.4593C28.7762 22.3514 28.6363 22.2974 28.4659 22.2974H12.5344C12.364 22.2974 12.2241 22.3514 12.1145 22.4593C12.0049 22.5673 11.9501 22.7054 11.9501 22.8739V26.4008C11.9501 26.5686 12.0049 26.7065 12.1145 26.8144C12.2241 26.9223 12.3643 26.9763 12.5353 26.9763Z" fill="var(--fill-0, white)"/>
</g>
</svg>
