<svg preserveAspectRatio="none" width="100%" height="100%" overflow="visible" style="display: block;" viewBox="0 0 41 41" fill="none" xmlns="http://www.w3.org/2000/svg">
<g id="Group 1721908790">
<circle id="Ellipse 1324" cx="20.5" cy="20.5" r="20.5" transform="matrix(-1 0 0 1 41 0)" fill="var(--fill-0, #00B5E2)"/>
<path id="Vector" d="M19.9062 28.7246V24.2667C18.8145 24.186 17.8649 23.7905 17.0574 23.0804C16.2499 22.3703 15.7441 21.4765 15.5398 20.399C14.2834 20.251 13.2127 19.736 12.3276 18.8541C11.4425 17.9722 11 16.9082 11 15.6621V15.2049C11 14.6745 11.1868 14.2221 11.5605 13.8476C11.9342 13.4739 12.387 13.2871 12.919 13.2871H15.3391V12.8299C15.3391 12.2995 15.526 11.8471 15.8996 11.4726C16.2733 11.0989 16.7257 10.9121 17.2569 10.9121H23.7431C24.2743 10.9121 24.7267 11.0989 25.1004 11.4726C25.474 11.8463 25.6609 12.2987 25.6609 12.8299V13.2871H28.0822C28.6126 13.2871 29.065 13.4739 29.4395 13.8476C29.8132 14.2213 30 14.6741 30 15.2061V15.6621C30 16.9074 29.5575 17.9714 28.6724 18.8541C27.7873 19.7368 26.7166 20.2514 25.4602 20.3979C25.2559 21.4761 24.7501 22.3703 23.9426 23.0804C23.1351 23.7905 22.1855 24.1864 21.0938 24.2679V28.7246H24.2003C24.3689 28.7246 24.5098 28.7812 24.623 28.8944C24.737 29.0076 24.794 29.1489 24.794 29.3184C24.794 29.4878 24.737 29.6291 24.623 29.7423C24.509 29.8555 24.3681 29.9121 24.2003 29.9121H16.8009C16.6315 29.9121 16.4902 29.8555 16.377 29.7423C16.263 29.6291 16.206 29.4878 16.206 29.3184C16.206 29.1489 16.263 29.0076 16.377 28.8944C16.491 28.7812 16.6323 28.7246 16.8009 28.7246H19.9062ZM15.3391 19.1249V14.4746H12.9178C12.7049 14.4746 12.5299 14.5431 12.3929 14.68C12.256 14.817 12.1875 14.9924 12.1875 15.2061V15.6621C12.1875 16.5512 12.4891 17.3242 13.0924 17.9813C13.6948 18.6384 14.4437 19.0196 15.3391 19.1249ZM23.2859 21.9654C24.0475 21.2038 24.4282 20.2752 24.4282 19.1795V12.8311C24.4282 12.6174 24.3594 12.442 24.2216 12.305C24.0855 12.1681 23.9105 12.0996 23.6968 12.0996H17.3032C17.0895 12.0996 16.9145 12.1681 16.7784 12.305C16.6406 12.442 16.5718 12.6174 16.5718 12.8311V19.1795C16.5718 20.2752 16.9525 21.2038 17.7141 21.9654C18.4757 22.7262 19.4043 23.1065 20.5 23.1065C21.5957 23.1065 22.5243 22.7262 23.2859 21.9654ZM25.6609 19.1237C26.5563 19.0192 27.3056 18.6384 27.9088 17.9813C28.5113 17.3242 28.8125 16.5512 28.8125 15.6621V15.2049C28.8125 14.992 28.744 14.817 28.6071 14.68C28.4701 14.5431 28.2951 14.4746 28.0822 14.4746H25.6609V19.1237Z" fill="var(--fill-0, white)"/>
</g>
</svg>
