<svg preserveAspectRatio="none" width="100%" height="100%" overflow="visible" style="display: block;" viewBox="0 0 17.8751 71.229" fill="none" xmlns="http://www.w3.org/2000/svg">
<g id="Group 13">
<path id="Vector" d="M0.065145 46.3578C3.97146 46.3578 7.1327 49.5182 7.1327 53.4236H0.065145V46.3578Z" fill="var(--fill-0, white)"/>
<path id="Vector_2" d="M17.875 53.3077V71.229H1.37887e-05C9.87431 71.229 17.875 63.2013 17.875 53.3077Z" fill="var(--fill-0, white)"/>
<path id="Vector_3" d="M12.5004 53.4235C12.4425 46.5818 6.92299 41.0203 0.0580073 40.9841V35.6178C9.8672 35.6468 17.81 43.6022 17.8679 53.4235H12.5004Z" fill="var(--fill-0, white)"/>
<path id="Vector_4" d="M7.1327 53.4242C7.07483 57.3006 3.95699 60.4611 0.065145 60.49V65.8563C6.9229 65.8274 12.4424 60.2586 12.5075 53.417H7.13994L7.1327 53.4242Z" fill="var(--fill-0, white)"/>
<path id="Vector_5" d="M0.065145 24.8712C3.97146 24.8712 7.1327 21.7107 7.1327 17.8054H0.065145V24.8712Z" fill="var(--fill-0, white)"/>
<path id="Vector_6" d="M5.43274 0C5.49061 6.84164 11.0101 12.4032 17.875 12.4393V17.8056C17.8099 27.6269 9.87434 35.5823 0.065145 35.6185V30.2522C6.9229 30.216 12.4424 24.6545 12.5075 17.8129V16.9667C5.32426 14.6741 0.115782 7.94817 0.065145 0.00723924H5.43998L5.43274 0Z" fill="var(--fill-0, white)"/>
<path id="Vector_7" d="M17.8749 7.06585C13.9686 7.06585 10.8073 3.89814 10.8073 0H17.8749V7.06585Z" fill="var(--fill-0, white)"/>
</g>
</svg>
