<svg viewBox="0 0 1440 740" preserveAspectRatio="xMidYMid slice" xmlns="http://www.w3.org/2000/svg">
  <!-- Фон карты -->
  <rect width="1440" height="740" fill="#f7f7f7"/>

  <!-- Кварталы (чуть темнее фона) -->
  <g fill="#eff0f1">
    <rect x="20" y="30" width="180" height="120" rx="6"/>
    <rect x="230" y="20" width="200" height="130" rx="6"/>
    <rect x="460" y="40" width="170" height="110" rx="6"/>
    <rect x="660" y="20" width="220" height="140" rx="6"/>
    <rect x="910" y="30" width="190" height="120" rx="6"/>
    <rect x="1130" y="20" width="290" height="150" rx="6"/>
    <rect x="30" y="190" width="170" height="150" rx="6"/>
    <rect x="230" y="180" width="190" height="160" rx="6"/>
    <rect x="450" y="180" width="180" height="150" rx="6"/>
    <rect x="920" y="190" width="180" height="140" rx="6"/>
    <rect x="1140" y="200" width="280" height="130" rx="6"/>
    <rect x="20" y="380" width="180" height="150" rx="6"/>
    <rect x="240" y="370" width="180" height="160" rx="6"/>
    <rect x="460" y="360" width="170" height="170" rx="6"/>
    <rect x="920" y="360" width="190" height="170" rx="6"/>
    <rect x="1150" y="360" width="270" height="160" rx="6"/>
    <rect x="30" y="570" width="180" height="150" rx="6"/>
    <rect x="250" y="570" width="180" height="150" rx="6"/>
    <rect x="470" y="570" width="170" height="150" rx="6"/>
    <rect x="680" y="580" width="200" height="140" rx="6"/>
    <rect x="920" y="570" width="180" height="150" rx="6"/>
    <rect x="1140" y="560" width="280" height="160" rx="6"/>
  </g>

  <!-- Парки -->
  <g fill="#e6efe4">
    <rect x="660" y="190" width="110" height="130" rx="8"/>
    <rect x="1150" y="30" width="120" height="70" rx="8"/>
    <rect x="40" y="590" width="90" height="90" rx="8"/>
  </g>

  <!-- Река -->
  <path d="M780 -10 C 760 120, 800 260, 760 420 C 730 540, 780 660, 760 750" fill="none" stroke="#dfe8ec" stroke-width="14" stroke-linecap="round"/>

  <!-- Крупные дороги (белые с серой обводкой) -->
  <g stroke="#e6e7e8" stroke-width="16" fill="none" stroke-linecap="round">
    <path d="M0 168 H1440"/>
    <path d="M0 350 H1440"/>
    <path d="M0 548 H1440"/>
    <path d="M215 0 V740"/>
    <path d="M440 0 V740"/>
    <path d="M645 0 V740"/>
    <path d="M900 0 V740"/>
    <path d="M1120 0 V740"/>
    <path d="M0 640 L 500 460 L 1440 300"/>
  </g>
  <g stroke="#ffffff" stroke-width="10" fill="none" stroke-linecap="round">
    <path d="M0 168 H1440"/>
    <path d="M0 350 H1440"/>
    <path d="M0 548 H1440"/>
    <path d="M215 0 V740"/>
    <path d="M440 0 V740"/>
    <path d="M645 0 V740"/>
    <path d="M900 0 V740"/>
    <path d="M1120 0 V740"/>
    <path d="M0 640 L 500 460 L 1440 300"/>
  </g>

  <!-- Мелкие улицы -->
  <g stroke="#ffffff" stroke-width="4" fill="none">
    <path d="M0 90 H1440"/>
    <path d="M0 260 H1440"/>
    <path d="M0 455 H1440"/>
    <path d="M0 655 H1440"/>
    <path d="M110 0 V740"/>
    <path d="M330 0 V740"/>
    <path d="M540 0 V740"/>
    <path d="M770 0 V740"/>
    <path d="M1010 0 V740"/>
    <path d="M1250 0 V740"/>
    <path d="M1340 0 V740"/>
  </g>

  <!-- Пульсация вокруг клиники -->
  <g>
    <circle cx="880" cy="330" r="150" fill="#00b5e2" opacity="0.05"/>
    <circle cx="880" cy="330" r="110" fill="#00b5e2" opacity="0.07"/>
    <circle cx="880" cy="330" r="72" fill="#00b5e2" opacity="0.09"/>
    <circle cx="880" cy="330" r="40" fill="#00b5e2" opacity="0.12"/>
    <circle cx="880" cy="330" r="7" fill="#00b5e2"/>
  </g>

  <!-- Подписи улиц и мест -->
  <g fill="#b3b8bd" font-family="Inter, Arial, sans-serif" font-size="13">
    <text x="60" y="160">Ремизовка</text>
    <text x="250" y="255">Пельмень</text>
    <text x="470" y="255">Big Apple</text>
    <text x="330" y="450">Globales</text>
    <text x="620" y="470">Ozen</text>
    <text x="1010" y="440">Ams Poznai-ka</text>
    <text x="1150" y="120">Научный центр</text>
    <text x="1150" y="138">акушерства</text>
    <text x="1180" y="260">Al-Farabi</text>
    <text x="560" y="640">Favor City View</text>
    <text x="70" y="700">Казахфильм</text>
  </g>
  <g fill="#9aa0a6" font-family="Inter, Arial, sans-serif" font-size="12">
    <text x="360" y="345" transform="rotate(-19 360 345)">ул. Нурлана Каппарова</text>
    <text x="905" y="60" transform="rotate(90 905 60)">ул. Жамакаева</text>
    <text x="450" y="60" transform="rotate(90 450 60)">ул. Ходжанова</text>
  </g>
  <g fill="#6b7075" font-family="Inter, Arial, sans-serif" font-size="13" font-weight="600">
    <text x="850" y="368">Еренсау</text>
  </g>
</svg>
