<svg preserveAspectRatio="none" width="100%" height="100%" overflow="visible" style="display: block;" viewBox="0 0 62.8242 62.8242" fill="none" xmlns="http://www.w3.org/2000/svg">
<g id="Group 1721908822">
<path id="Rectangle 40719" opacity="0.2" d="M0 31.4121C0 14.0637 14.0637 0 31.4121 0V0C48.7605 0 62.8242 14.0637 62.8242 31.4121V31.4121C62.8242 48.7605 48.7605 62.8242 31.4121 62.8242V62.8242C14.0637 62.8242 0 48.7605 0 31.4121V31.4121Z" fill="var(--fill-0, #00B5E2)"/>
<path id="Vector" d="M30.0277 13.9121C30.8765 16.4754 30.8765 21.602 30.8765 23.3109C33.9039 19.5015 38.956 17.0508 43.0238 16.5645C43.8478 16.466 44.5572 17.0793 44.6937 17.9033L44.9766 19.6122C45.1491 20.6538 44.3453 21.5976 43.313 21.7851C39.7708 22.4283 36.4181 24.7021 34.2716 27.583C32.5737 30.1463 30.8766 34.4185 30.8766 40.3995M34.2716 27.583C32.574 30.1463 31.7253 33.564 24.0861 33.564M23.2373 22.4564C22.3885 19.8931 20.6909 18.1843 18.1445 18.1843M17.2958 35.268C18.9933 42.9579 25.5016 48.9121 30.0276 48.9121C34.5535 48.9121 40.7801 42.9584 42.7598 35.268C44.7394 27.5776 38.5158 22.4516 34.2718 27.5782C34.2718 25.0207 31.7254 22.4566 26.6326 22.4566C21.5398 22.4566 15.5983 27.5782 17.2958 35.268Z" stroke="var(--stroke-0, #00B5E2)" stroke-width="1.6" stroke-linecap="round" stroke-linejoin="round"/>
</g>
</svg>
