<svg preserveAspectRatio="none" width="100%" height="100%" overflow="visible" style="display: block;" viewBox="0 0 63 63" fill="none" xmlns="http://www.w3.org/2000/svg">
<g id="Group 1721908872">
<path id="Rectangle 40719" opacity="0.2" d="M0 31.5C0 14.103 14.103 0 31.5 0V0C48.897 0 63 14.103 63 31.5V31.5C63 48.897 48.897 63 31.5 63V63C14.103 63 0 48.897 0 31.5V31.5Z" fill="var(--fill-0, #00B5E2)"/>
<path id="Vector" d="M27.5935 21.786C27.5935 19.7776 26.1606 17.7699 20.543 22.6469C12.6111 29.5329 15.2551 45.0267 16.1364 45.8874C17.0177 46.7482 26.7121 42.4444 27.5935 40.7228C28.4748 39.0013 26.7122 36.419 28.4748 32.976M36.4065 21.786C36.4065 19.7775 37.8394 17.7699 43.457 22.6468C51.3889 29.5329 48.7449 45.0266 47.8636 45.8874C46.9823 46.7482 37.2879 42.4443 36.4065 40.7228C35.5252 39.0013 37.2879 36.419 35.5252 32.9759M40.8132 35.5584C40.8132 31.4937 38.1348 29.4672 36.095 28.1489C31.8878 25.4297 32 20.3669 32 15.9999C32 20.3669 32.1122 25.4297 27.905 28.1489C25.8653 29.4672 23.187 31.4937 23.187 35.5584" stroke="var(--stroke-0, #00B5E2)" stroke-width="1.6" stroke-linecap="round" stroke-linejoin="round"/>
</g>
</svg>
