<svg preserveAspectRatio="none" width="100%" height="100%" overflow="visible" style="display: block;" viewBox="0 0 62.8242 62.8242" fill="none" xmlns="http://www.w3.org/2000/svg">
<g id="Group 1721908822">
<path id="Rectangle 40719" opacity="0.2" d="M0 31.4121C0 14.0637 14.0637 0 31.4121 0V0C48.7605 0 62.8242 14.0637 62.8242 31.4121V31.4121C62.8242 48.7605 48.7605 62.8242 31.4121 62.8242V62.8242C14.0637 62.8242 0 48.7605 0 31.4121V31.4121Z" fill="var(--fill-0, #00B5E2)"/>
<path id="Vector" d="M23.525 26.6121H27.15L30.05 32.4121L32.95 23.7121L35.85 29.5121H39.475M17 38.2121H46M22.8 42.5621H22.945M28.6 42.5621H28.745M22.8 46.9121H40.2C43.4033 46.9121 46 44.3154 46 41.1121V23.7121C46 20.5089 43.4033 17.9121 40.2 17.9121H22.8C19.5967 17.9121 17 20.5089 17 23.7121V41.1121C17 44.3154 19.5967 46.9121 22.8 46.9121Z" stroke="var(--stroke-0, #00B5E2)" stroke-width="1.6" stroke-linecap="round" stroke-linejoin="round"/>
</g>
</svg>
