<svg preserveAspectRatio="none" width="100%" height="100%" overflow="visible" style="display: block;" viewBox="0 0 62.8242 62.8242" fill="none" xmlns="http://www.w3.org/2000/svg">
<g id="Group 1721908822">
<path id="Rectangle 40719" opacity="0.2" d="M0 31.4121C0 14.0637 14.0637 0 31.4121 0V0C48.7605 0 62.8242 14.0637 62.8242 31.4121V31.4121C62.8242 48.7605 48.7605 62.8242 31.4121 62.8242V62.8242C14.0637 62.8242 0 48.7605 0 31.4121V31.4121Z" fill="var(--fill-0, #00B5E2)"/>
<path id="Vector" d="M34.8856 47.9121V36.1933M34.8856 36.1933C37.0483 33.7777 38.2712 29.2447 38.2712 25.4121C38.2712 19.8893 36.5784 17.9121 31.4999 17.9121C26.4215 17.9121 24.7287 19.8893 24.7287 25.4121C24.7287 29.2447 25.9515 33.7777 28.1143 36.1933M34.8856 36.1933C33.9317 37.2586 32.7951 37.9121 31.4999 37.9121C30.2048 37.9121 29.0681 37.2586 28.1143 36.1933M28.1143 47.9121V36.1933M37.7306 21.2454C39.4234 19.5788 41.9626 18.7454 44.5018 19.5787C50.2921 21.479 47.8875 30.412 44.5018 29.5787C41.1162 28.7454 43.6554 22.0788 47.8874 23.7454M25.2694 21.2454C23.5766 19.5788 21.0374 18.7454 18.4982 19.5787C12.7079 21.479 15.1125 30.412 18.4982 29.5787C21.8838 28.7454 19.3446 22.0788 15.1125 23.7454" stroke="var(--stroke-0, #00B5E2)" stroke-width="1.6" stroke-linecap="round" stroke-linejoin="round"/>
</g>
</svg>
