<svg preserveAspectRatio="none" width="100%" height="100%" overflow="visible" style="display: block;" viewBox="0 0 62.8242 62.8242" fill="none" xmlns="http://www.w3.org/2000/svg">
<g id="Group 1721908822">
<path id="Rectangle 40719" opacity="0.2" d="M0 31.4121C0 14.0637 14.0637 0 31.4121 0V0C48.7605 0 62.8242 14.0637 62.8242 31.4121V31.4121C62.8242 48.7605 48.7605 62.8242 31.4121 62.8242V62.8242C14.0637 62.8242 0 48.7605 0 31.4121V31.4121Z" fill="var(--fill-0, #00B5E2)"/>
<path id="Vector" d="M39.9271 30.2757C39.6042 27.9848 38.6354 26.1848 34.7601 25.3667C34.1241 27.781 33.3073 30.2156 31.7071 35.0239C31.3313 36.1529 31.0236 37.4987 30.8457 38.9485M32.852 49.9121C30.7611 46.7649 30.4053 42.5383 30.8457 38.9485M30.8457 38.9485C32.1172 39.3633 33.4687 39.9303 34.4375 40.7485C34.44 40.7516 34.4425 40.7548 34.445 40.7579M34.445 40.7579C34.9987 41.4521 35.5088 42.5893 35.5677 44.0212M34.445 40.7579C35.102 41.5679 37.5108 41.724 38.9583 40.0939M28.4635 49.5848C26.7844 45.2648 26.3646 43.8576 26.3646 43.6939C24.9115 43.7485 21.3594 44.643 18.776 47.7848M17 44.0212C18.6007 42.4727 20.7205 41.2668 22.6033 40.4212C24.0631 39.7656 25.3805 39.3265 26.2031 39.1121C27.1352 36.7843 28.5201 32.8853 29.4412 29.1303C30.0094 26.8141 30.401 24.5526 30.401 22.7485C30.401 18.8212 29.2708 17.0212 27.9792 14.2394M29.4412 29.1303C28.548 27.5625 27.5009 26.1916 26.4573 25.0394M26.4573 25.0394C24.6253 23.0167 22.8038 21.6681 21.8437 21.1121M26.4573 25.0394C23.6706 24.7776 21.6823 26.2394 21.0365 27.003M22.6033 40.4212C22.0272 39.9848 20.1 38.9485 17 38.2939M32.8229 13.9121C33.9531 17.0212 34.276 18.9848 36.0521 21.4394C37.0084 22.7611 38.7607 23.5134 40.25 24.4374M40.25 24.4374C41.5265 25.2292 42.6098 26.1471 42.8333 27.6576M40.25 24.4374C42.1875 24.2212 45.5781 20.4576 48 24.0576" stroke="var(--stroke-0, #00B5E2)" stroke-width="1.6" stroke-linecap="round" stroke-linejoin="round"/>
</g>
</svg>
